
<svg width="24px" height="29px" viewBox="0 0 24 29" version="1.1" xmlns="http://www.w3.org/2000/svg" xmlns:xlink="http://www.w3.org/1999/xlink">
    <g id="Page-1" stroke="none" stroke-width="1" fill="none" fill-rule="evenodd">
        <g id="tippmixoddsinfo_desktop-contact" transform="translate(-708.000000, -681.000000)" fill="#FFFFFF" fill-rule="nonzero">
            <g id="sandorszaboLogo" transform="translate(0.000000, 670.000000)">
                <g transform="translate(708.000000, 11.000000)">
                    <polygon id="Shape" points="1.87989294 3.42866889 1.87989294 1.88585172 22.0572098 1.90597105 22.0572098 3.18690162 23.9371027 3.18690162 23.9371027 0.023807872 0 0 0 5.0918667 22.1201071 7.86531613 22.1201071 9.53052588 1.87989294 9.53052588 1.87989294 8.27407382 0 8.27407382 0 12.733523 1.87989294 12.733523 1.87989294 11.414701 22.1201071 11.414701 22.1201071 13.0651566 0.06256273 14.7984367 0.06256273 18.2603025 0.06256273 19.2022224 0.06256273 23.3598816 22.1201071 25.5512118 22.1201071 27.1158249 1.94245567 27.1158249 1.94245567 25.1689445 0.06256273 25.1689445 0.06256273 29 24 29 24 23.8444221 1.94245567 21.6534272 1.94245567 20.1444776 22.1201071 20.1444776 22.1201071 21.4632996 24 21.4632996 24 16.9414805 22.1201071 16.9414805 22.1201071 18.2603025 1.94245567 18.2603025 1.94245567 16.5407705 24 14.8074904 24 11.414701 24 9.78168216 24 6.20211831"></polygon>
                </g>
            </g>
        </g>
    </g>
</svg>
